<svg width="240" height="240" viewBox="0 0 240 240" fill="none" xmlns="http://www.w3.org/2000/svg">
<g clip-path="url(#clip0_340_9895)">
<path d="M146.606 106.865H135.535V144.873C135.535 145.688 135.535 145.689 134.741 145.689H130.123C130.108 145.39 130.088 145.15 130.088 144.911C130.088 136.425 130.085 127.94 130.08 119.454C130.08 117.624 130.027 115.793 129.429 114.034C128.957 112.644 128.283 111.331 127.428 110.137C125.777 107.825 123.475 106.714 120.705 106.59C119.451 106.536 118.195 106.627 116.961 106.859C114.57 107.309 112.784 108.7 111.491 110.749C110.075 112.961 109.329 115.534 109.341 118.159C109.341 127.065 109.341 135.97 109.341 144.874C109.341 145.683 109.341 145.685 108.54 145.685H103.911V106.87C103.628 106.851 103.406 106.821 103.185 106.821C99.9432 106.821 96.7016 106.83 93.4589 106.807C92.9131 106.807 92.7506 106.947 92.7506 107.507C92.7666 119.94 92.7708 132.374 92.7632 144.808V145.622C92.6207 145.654 92.4762 145.676 92.3307 145.689C90.8238 145.689 89.318 145.689 87.811 145.698C87.4495 145.698 87.271 145.594 87.3099 145.211C87.327 145.041 87.3099 144.868 87.3099 144.696V106.881H76.5943V107.66C76.5943 120.054 76.5943 132.45 76.5943 144.847C76.5943 145.691 76.5943 145.693 75.7659 145.693H71.1981C71.1844 145.38 71.1638 145.12 71.1638 144.863C71.1638 132.429 71.1638 119.995 71.1638 107.561C71.1638 106.82 71.1638 106.82 70.4132 106.819C70.0322 106.819 69.65 106.819 69.269 106.81C69.1959 106.802 69.1235 106.787 69.0527 106.767V102.625C69.2816 102.613 69.5242 102.59 69.7622 102.59H169.702C170.433 102.59 170.434 102.59 170.434 103.345V106.811H168.26V145.689H166.219C165.284 145.689 164.349 145.666 163.415 145.698C162.958 145.714 162.828 145.545 162.833 145.104C162.852 143.311 162.841 141.52 162.841 139.727V106.861C162.574 106.844 162.369 106.82 162.165 106.82C159.018 106.82 155.871 106.831 152.725 106.806C152.176 106.806 152.02 106.954 152.02 107.51C152.036 119.961 152.04 132.413 152.033 144.864C152.033 145.689 152.033 145.689 151.197 145.689C149.844 145.689 148.489 145.678 147.135 145.696C146.743 145.696 146.563 145.572 146.601 145.172C146.618 144.983 146.601 144.791 146.601 144.6V106.865H146.606Z" fill="white"/>
<path d="M119.69 99.2439H69.863C68.9133 99.2439 69.0117 99.3446 69.0071 98.3835C69.0025 97.4224 69.0186 96.4383 69.0003 95.4657C68.9934 95.0962 69.1215 94.9348 69.4946 94.9669C69.665 94.9817 69.8378 94.9669 70.0095 94.9669C103.152 94.9669 136.294 94.9669 169.435 94.9669C170.587 94.9669 170.425 94.8605 170.434 95.9806C170.441 96.9155 170.424 97.8503 170.434 98.784C170.441 99.1272 170.32 99.2748 169.969 99.2417C169.781 99.2245 169.588 99.2417 169.397 99.2417L119.69 99.2439Z" fill="white"/>
<path d="M84.7454 162.006C85.1081 162.235 85.4434 162.415 85.7454 162.64C87.4618 163.919 88.1781 165.681 88.0842 167.768C88.0569 168.586 87.9116 169.395 87.6529 170.171C86.7192 172.843 84.655 174.15 81.9535 174.27C78.3 174.433 74.6305 174.368 70.977 174.422C70.4118 174.43 70.4965 174.079 70.4965 173.742V157.494C70.4965 155.378 70.5068 153.261 70.4873 151.144C70.4873 150.698 70.6132 150.551 71.0709 150.555C74.2552 150.574 77.4396 150.528 80.6228 150.591C81.7082 150.606 82.7864 150.771 83.8266 151.081C86.321 151.852 87.8485 154.285 87.6483 156.935C87.4595 159.384 86.9148 160.346 84.7454 162.006ZM77.9407 164.187V164.105C76.9304 164.105 75.9212 164.119 74.9109 164.097C74.5161 164.089 74.3742 164.22 74.3765 164.618C74.3887 166.638 74.3887 168.658 74.3765 170.677C74.3765 171.04 74.4909 171.183 74.8731 171.179C76.8926 171.16 78.9133 171.186 80.9374 171.144C82.0885 171.121 83.092 170.679 83.5989 169.585C83.8636 168.977 84.0226 168.328 84.0692 167.667C84.2259 165.824 83.2373 164.471 81.4203 164.217C80.2784 164.057 79.101 164.187 77.9407 164.187V164.187ZM74.3822 157.312C74.3822 158.323 74.3822 159.333 74.3822 160.342C74.3822 160.674 74.4394 160.871 74.8491 160.866C76.7164 160.847 78.5849 160.886 80.4557 160.842C82.1537 160.802 83.2762 159.86 83.6069 158.239C83.6947 157.752 83.7185 157.255 83.6778 156.761C83.5726 155.125 82.648 154.045 81.0141 153.942C78.9271 153.81 76.8286 153.848 74.7346 153.843C74.6202 153.843 74.4097 154.127 74.4051 154.283C74.3685 155.292 74.3834 156.302 74.3822 157.312V157.312Z" fill="white"/>
<path d="M112.765 170.872H118.143C118.119 170.977 118.08 171.079 118.029 171.175C117.315 172.165 116.611 173.163 115.855 174.123C115.715 174.301 115.372 174.399 115.123 174.401C110.622 174.417 106.122 174.412 101.621 174.412H91.7656C91.9064 174.121 91.9865 173.935 92.0837 173.758C96.2029 166.196 100.317 158.633 104.426 151.069C104.623 150.706 104.838 150.55 105.263 150.554C107.533 150.575 109.802 150.584 112.071 150.554C112.634 150.546 112.73 150.762 112.73 151.252C112.719 157.526 112.716 163.8 112.723 170.074C112.728 170.333 112.748 170.594 112.765 170.872ZM108.9 153.58C108.264 153.58 107.692 153.61 107.124 153.571C106.682 153.54 106.451 153.696 106.241 154.091C103.344 159.557 100.439 165.02 97.5256 170.479C97.4387 170.642 97.3631 170.811 97.2625 171.019H108.896L108.9 153.58Z" fill="white"/>
<path d="M139.153 163.45H127.26C127.244 163.703 127.215 163.944 127.215 164.185C127.215 167.369 127.199 170.552 127.225 173.735C127.225 174.297 127.059 174.454 126.516 174.422C125.697 174.377 124.877 174.377 124.058 174.422C123.486 174.454 123.36 174.246 123.361 173.708C123.377 166.979 123.381 160.25 123.372 153.519C123.372 152.7 123.383 151.88 123.372 151.06C123.365 150.697 123.486 150.549 123.868 150.557C124.784 150.575 125.699 150.587 126.614 150.557C127.09 150.54 127.232 150.692 127.228 151.168C127.208 153.895 127.217 156.62 127.221 159.347C127.221 159.576 127.248 159.793 127.264 160.033H139.164V151.337C139.164 150.573 139.164 150.572 139.956 150.572C140.832 150.572 141.71 150.583 142.588 150.572C142.937 150.565 143.077 150.703 143.058 151.04C143.058 151.154 143.058 151.269 143.058 151.383V173.619C143.058 174.412 143.058 174.412 142.291 174.413C141.472 174.413 140.65 174.384 139.832 174.423C139.312 174.448 139.146 174.289 139.153 173.755C139.176 170.572 139.164 167.388 139.164 164.204L139.153 163.45Z" fill="white"/>
<path d="M149.369 174.413C152.277 170.226 155.079 166.192 157.91 162.118L149.752 150.561C150.596 150.561 151.272 150.552 151.948 150.561C152.764 150.574 153.703 150.359 154.358 150.694C154.993 151.019 155.342 151.911 155.804 152.564C157.28 154.645 158.749 156.732 160.267 158.872C160.401 158.692 160.515 158.554 160.61 158.405C162.258 155.954 163.911 153.505 165.54 151.042C165.781 150.68 166.032 150.535 166.467 150.549C167.467 150.581 168.467 150.559 169.602 150.559C169.407 150.867 169.297 151.057 169.172 151.238C166.916 154.518 164.658 157.798 162.396 161.078C162.167 161.413 162.16 161.63 162.396 161.968C165.174 165.886 167.941 169.812 170.696 173.747C170.811 173.915 170.925 174.09 171.075 174.308C170.979 174.351 170.879 174.381 170.776 174.399C169.479 174.399 168.182 174.422 166.886 174.385C166.675 174.385 166.409 174.177 166.275 173.989C164.231 171.117 162.196 168.237 160.172 165.349C160.057 165.181 159.925 165.021 159.756 164.799C159.596 165.028 159.466 165.204 159.342 165.387C157.423 168.231 155.499 171.07 153.596 173.925C153.354 174.287 153.097 174.427 152.664 174.415C151.624 174.392 150.581 174.413 149.369 174.413Z" fill="white"/>
<path d="M103.889 87.9863H135.504C135.516 88.2152 135.534 88.4166 135.535 88.6191C135.535 89.5905 135.502 90.5643 135.549 91.5334C135.576 92.1055 135.359 92.2268 134.829 92.2199C124.749 92.2077 114.668 92.2077 104.587 92.2199C104.054 92.2199 103.853 92.0975 103.876 91.5254C103.923 90.3743 103.889 89.2129 103.889 87.9863Z" fill="white"/>
<path d="M113.276 84.5522C113.276 83.2352 113.268 81.9456 113.289 80.6549C113.289 80.5474 113.462 80.3998 113.588 80.3472C113.714 80.2945 113.888 80.3277 114.046 80.3277H125.352C126.153 80.3277 126.153 80.3277 126.153 81.1481V84.5522H113.276Z" fill="white"/>
<path d="M124.445 69.2251C124.188 69.2389 124.02 69.2572 123.851 69.2572C121.089 69.2572 118.327 69.2457 115.564 69.2698C115.05 69.2698 114.907 69.1073 114.921 68.6176C114.951 67.5878 114.941 66.558 114.921 65.5282C114.915 65.1346 115.064 64.9938 115.457 64.9961C118.28 65.0068 121.1 65.0068 123.917 64.9961C124.297 64.9961 124.458 65.0968 124.45 65.5122C124.436 66.7308 124.445 67.9482 124.445 69.2251Z" fill="white"/>
<path d="M90.9255 88.2193L92.8397 92.1417H87.4219L89.3396 88.241C88.1233 87.3257 87.7789 86.5659 88.1107 85.5521C88.2516 85.134 88.5183 84.7697 88.8743 84.5092C89.2303 84.2486 89.6582 84.1045 90.0993 84.0967C90.5409 84.0952 90.9719 84.2314 91.3324 84.4863C91.6929 84.7412 91.965 85.1022 92.1109 85.519C92.4622 86.543 92.1292 87.3074 90.9255 88.2193Z" fill="white"/>
<path d="M152.027 92.1624H146.59L148.514 88.2149C147.321 87.3361 146.978 86.5352 147.33 85.5134C147.479 85.0982 147.753 84.7395 148.115 84.4868C148.476 84.2341 148.907 84.0999 149.349 84.1026C149.809 84.1109 150.253 84.2684 150.616 84.5513C150.979 84.8342 151.24 85.2272 151.36 85.6713C151.636 86.6519 151.246 87.4574 150.095 88.2195L152.027 92.1624Z" fill="white"/>
<path d="M73.9213 84.1406C74.9099 85.4725 75.8791 86.7643 76.8242 88.0722C76.8624 88.1486 76.8816 88.2331 76.8802 88.3186C76.8788 88.404 76.8568 88.4879 76.8162 88.563C75.8699 89.872 74.9031 91.1638 73.9156 92.4957C73.8064 92.4085 73.7046 92.3124 73.6112 92.2085C72.7176 91.0254 71.8205 89.8434 70.9498 88.642C70.848 88.5035 70.8033 88.1843 70.8891 88.0699C71.8148 86.7918 72.7725 85.5366 73.7234 84.2768C73.7837 84.2237 73.8502 84.178 73.9213 84.1406V84.1406Z" fill="white"/>
<path d="M165.514 92.4863L163.827 90.2048C163.431 89.6704 163.017 89.1464 162.649 88.5937C162.562 88.4633 162.543 88.1749 162.628 88.0571C163.571 86.7481 164.541 85.4574 165.539 84.1152C165.654 84.2263 165.764 84.3436 165.866 84.4665C166.737 85.6279 167.613 86.7721 168.461 87.9438C168.576 88.0983 168.635 88.4369 168.545 88.5628C167.621 89.8432 166.658 91.0961 165.712 92.3559C165.652 92.4075 165.585 92.4513 165.514 92.4863V92.4863Z" fill="white"/>
<path d="M119.7 77.3986L116.168 72.6387H123.24L119.7 77.3986Z" fill="white"/>
</g>
<defs>
<clipPath id="clip0_340_9895">
<rect width="102.076" height="109.428" fill="white" transform="translate(69 65)"/>
</clipPath>
</defs>
</svg>
